M48
;DRILL file {KiCad (2015-08-13 BZR 6091)-product} date Sonntag, 30. August 2015 07:23:06
;FORMAT={-:-/ absolute / inch / decimal}
FMAT,2
INCH,TZ
T1C0.016
T2C0.024
T3C0.031
T4C0.032
T5C0.032
T6C0.039
T7C0.040
%
G90
G05
M72
T1
X2.55Y-3.
X2.6Y-3.35
X3.2Y-2.8
X3.25Y-3.5
X3.4Y-3.65
X3.65Y-5.1
X3.95Y-3.55
X3.95Y-3.8
X4.05Y-3.55
X4.1Y-2.65
X4.349Y-2.6
X4.3992Y-2.5
X4.45Y-2.4
X4.65Y-3.
X4.7Y-3.4
X4.95Y-3.6
X4.95Y-4.8
X4.95Y-5.05
X4.95Y-5.25
X5.Y-2.2
X5.1Y-5.3
X5.15Y-2.25
X5.2Y-1.95
X5.3Y-4.15
X5.3Y-4.25
X5.45Y-2.1
X5.45Y-2.2
X5.5Y-2.3
X5.5Y-4.2
X5.5Y-4.25
X5.5Y-4.4
X5.55Y-2.4
X5.6Y-2.5
X5.6Y-4.5
X5.65Y-2.55
X5.65Y-3.4
X5.7Y-2.25
X5.7Y-4.85
X5.7Y-4.9
X5.7Y-4.95
X5.85Y-4.45
X6.001Y-3.649
X6.0492Y-3.5
X6.05Y-3.25
X6.1Y-3.15
X6.1Y-3.6
X6.15Y-3.
X6.2Y-2.9
X6.25Y-2.8
X6.3Y-2.7
X6.35Y-2.3
X6.35Y-2.6
X6.55Y-4.45
X6.55Y-4.65
X6.55Y-4.7
X6.6Y-2.7
X6.6Y-4.55
X6.65Y-2.8
X6.7Y-3.1
X6.7Y-4.35
X6.75Y-2.9
X6.75Y-3.8
X6.75Y-4.6
X6.75Y-4.65
X6.75Y-4.7
X6.75Y-4.75
X6.75Y-4.8
X6.75Y-4.85
X6.75Y-4.9
X6.8Y-3.7
X6.85Y-2.55
X6.85Y-3.8
X6.85Y-4.4606
X6.85Y-4.55
X6.85Y-5.25
X6.9Y-3.05
X6.9Y-3.8
X6.95Y-3.4
X6.95Y-3.8
X7.Y-3.5
X7.Y-3.8
X7.05Y-3.6
X7.05Y-3.8
X7.25Y-3.65
X7.25Y-3.8
X7.3Y-3.55
X7.3Y-3.8
X7.35Y-3.45
X7.35Y-3.8
X7.35Y-4.5
X7.4Y-3.35
X7.4Y-3.8
X7.4Y-5.3
X7.45Y-2.6
X7.5Y-2.7
X7.55Y-2.8
X7.6Y-2.85
X7.65Y-2.95
X7.85Y-3.05
X7.9Y-3.15
T2
X4.55Y-4.7
X4.55Y-4.75
X4.55Y-4.8
T3
X2.45Y-1.8
X2.7Y-1.8
X2.7Y-2.1
X2.8Y-1.8
X2.8Y-2.1
X2.9Y-1.8
X2.9Y-2.1
X3.Y-1.8
X3.Y-2.1
X3.05Y-2.65
X3.05Y-2.75
X3.05Y-2.85
X3.05Y-2.95
X3.05Y-3.05
X3.05Y-3.15
X3.05Y-3.25
X3.05Y-3.35
X3.05Y-3.45
X3.05Y-3.55
X3.05Y-3.65
X3.05Y-3.75
X3.05Y-4.2
X3.05Y-4.5
X3.1Y-1.8
X3.1Y-2.1
X3.15Y-4.2
X3.15Y-4.5
X3.2Y-1.8
X3.2Y-2.1
X3.25Y-4.2
X3.25Y-4.5
X3.3Y-1.8
X3.3Y-2.1
X3.35Y-4.2
X3.35Y-4.5
X3.4Y-1.8
X3.4Y-2.1
X3.45Y-4.2
X3.45Y-4.5
X3.55Y-4.2
X3.55Y-4.5
X3.5516Y-2.35
X3.65Y-2.65
X3.65Y-2.75
X3.65Y-2.85
X3.65Y-2.95
X3.65Y-3.05
X3.65Y-3.15
X3.65Y-3.25
X3.65Y-3.35
X3.65Y-3.45
X3.65Y-3.55
X3.65Y-3.65
X3.65Y-3.75
X3.65Y-4.2
X3.65Y-4.5
X4.25Y-2.2
X4.25Y-2.3
X4.25Y-2.4
X4.25Y-2.5
X4.25Y-2.6
X4.25Y-2.7
X4.25Y-2.8
X4.25Y-2.9
X4.25Y-3.
X4.25Y-3.1
X4.25Y-3.2
X4.25Y-3.3
X4.25Y-3.4
X4.25Y-3.5
X4.25Y-3.6
X4.25Y-3.7
X4.25Y-3.8
X4.25Y-3.9
X4.25Y-4.
X4.25Y-4.1
X4.6984Y-3.55
X4.85Y-2.2
X4.85Y-2.3
X4.85Y-2.4
X4.85Y-2.5
X4.85Y-2.6
X4.85Y-2.7
X4.85Y-2.8
X4.85Y-2.9
X4.85Y-3.
X4.85Y-3.1
X4.85Y-3.2
X4.85Y-3.3
X4.85Y-3.4
X4.85Y-3.5
X4.85Y-3.6
X4.85Y-3.7
X4.85Y-3.8
X4.85Y-3.9
X4.85Y-4.
X4.85Y-4.1
X5.55Y-4.7
X5.85Y-2.4
X5.85Y-2.5
X5.85Y-2.6
X5.85Y-2.7
X5.85Y-2.8
X5.85Y-2.9
X5.85Y-3.
X5.85Y-3.1
X5.85Y-3.2
X5.85Y-3.3
X5.85Y-3.4
X5.85Y-3.5
X5.85Y-3.6
X5.85Y-3.7
X5.85Y-4.
X5.85Y-4.3
X5.95Y-4.
X5.95Y-4.3
X6.05Y-4.
X6.05Y-4.3
X6.125Y-2.225
X6.15Y-4.
X6.15Y-4.3
X6.25Y-4.
X6.25Y-4.3
X6.35Y-4.
X6.35Y-4.3
X6.45Y-2.4
X6.45Y-2.5
X6.45Y-2.6
X6.45Y-2.7
X6.45Y-2.8
X6.45Y-2.9
X6.45Y-3.
X6.45Y-3.1
X6.45Y-3.2
X6.45Y-3.3
X6.45Y-3.4
X6.45Y-3.5
X6.45Y-3.6
X6.45Y-3.7
X6.45Y-4.
X6.45Y-4.3
X7.15Y-2.4
X7.15Y-2.5
X7.15Y-2.6
X7.15Y-2.7
X7.15Y-2.8
X7.15Y-2.9
X7.15Y-3.
X7.15Y-3.1
X7.15Y-3.2
X7.15Y-3.3
X7.15Y-3.4
X7.15Y-3.5
X7.15Y-3.6
X7.15Y-3.7
X7.75Y-1.95
X7.75Y-2.4
X7.75Y-2.5
X7.75Y-2.6
X7.75Y-2.7
X7.75Y-2.8
X7.75Y-2.9
X7.75Y-3.
X7.75Y-3.1
X7.75Y-3.2
X7.75Y-3.3
X7.75Y-3.4
X7.75Y-3.5
X7.75Y-3.6
X7.75Y-3.7
T4
X2.45Y-1.8984
X3.65Y-2.35
X4.6Y-3.55
X5.55Y-4.6016
X6.0266Y-2.225
X7.6516Y-1.95
T5
X4.05Y-4.6
X4.05Y-4.9
X4.25Y-4.6
X4.25Y-4.9
T6
X4.05Y-3.7
X4.05Y-4.1
X5.05Y-3.6
X5.05Y-3.8
X5.05Y-4.
X5.45Y-3.6
X5.45Y-3.8
X5.45Y-4.
T7
X2.25Y-2.95
X2.25Y-3.05
X2.25Y-3.15
X2.25Y-3.25
X2.25Y-3.35
X2.25Y-3.45
X2.25Y-3.55
X2.3Y-4.
X2.3Y-4.1
X2.3Y-4.2
X2.3Y-4.3
X2.35Y-2.95
X2.35Y-3.05
X2.35Y-3.15
X2.35Y-3.25
X2.35Y-3.35
X2.35Y-3.45
X2.35Y-3.55
X6.Y-5.
X6.Y-5.1
X6.1Y-5.
X6.1Y-5.1
X6.2Y-5.
X6.2Y-5.1
X6.3Y-5.
X6.3Y-5.1
X6.4Y-5.
X6.4Y-5.1
X6.5Y-5.
X6.5Y-5.1
X6.6Y-5.
X6.6Y-5.1
X6.7Y-5.
X6.7Y-5.1
X6.8Y-5.
X6.8Y-5.1
X6.9Y-5.
X6.9Y-5.1
X7.Y-5.
X7.Y-5.1
X7.1Y-5.
X7.1Y-5.1
X7.2Y-5.
X7.2Y-5.1
X7.3Y-5.
X7.3Y-5.1
X7.4Y-5.
X7.4Y-5.1
X7.5Y-5.
X7.5Y-5.1
T0
M30
